<svg width="72" height="72" viewBox="0 0 72 72" fill="none" xmlns="http://www.w3.org/2000/svg">
<path d="M9 24V18C9 14.6863 11.6863 12 15 12H57C60.3137 12 63 14.6863 63 18V24M9 24V54C9 57.3137 11.6863 60 15 60H24M9 24H63M63 24V27M69 51C69 60.9411 60.9411 69 51 69M69 51C69 41.0589 60.9411 33 51 33M69 51H33M51 69C41.0589 69 33 60.9411 33 51M51 69C39 51 46 37.5 51 33M51 69C63 51 56 37.5 51 33M33 51C33 41.0589 41.0589 33 51 33" stroke="#E8730E" stroke-width="5" stroke-linecap="round" stroke-linejoin="round"/>
</svg>
